<svg id="Layer_1" data-name="Layer 1" xmlns="http://www.w3.org/2000/svg" viewBox="0 0 1435.9 1723.47"><defs><style>.cls-1{fill:#2a2a28;}</style></defs><polygon points="696.28 1723.47 112.65 1289.97 112.65 833.28 158.13 833.28 158.13 1267.1 696.28 1666.82 1234.42 1267.1 1234.42 937.27 1279.91 937.27 1279.91 1289.97 696.28 1723.47"/><polygon points="158.13 373.23 112.65 373.23 112.65 0 1279.91 0 1279.91 346.43 1234.42 346.43 1234.42 45.48 158.13 45.48 158.13 373.23"/><path d="M910.05,1008.51c-3.56,1-7.07-.13-10.59-.31q-6.44-.9-12.53-2.35a123.8,123.8,0,0,0,15.39,3.89c2.68.46,3.11,4.17,3.3,7,0,0,0,.09,0,.13,3.45-1.65,6.77-3.78,10.84-3.2.94-6,5.23-8,10.49-8.43,1.71-.13,3.45,0,5.16,0a4.77,4.77,0,0,1-2.93-3.61C923.81,1006.46,916.23,1005.64,910.05,1008.51Z" transform="translate(-282.27 -137.72)"/><path d="M846.23,983.57a24,24,0,0,1,1.66,11.93c-1,10.11,6.27,13.21,14.79,7.6,2-1.29,3.83-3.33,6.19-2.72,1.32.34,2.64.71,4,1.09C862.41,997.36,853.33,991.52,846.23,983.57Z" transform="translate(-282.27 -137.72)"/><path d="M932.13,1005.16a8.38,8.38,0,0,0,4.73-1.48c-2.51-.46-5.4,0-7-2.72-.2.21-.42.39-.63.59A4.77,4.77,0,0,0,932.13,1005.16Z" transform="translate(-282.27 -137.72)"/><path d="M916.48,1013.63a10,10,0,0,1,1.29.23c2.48-8.63,11.77-4.48,17-8a12,12,0,0,1-2.63-.75c-1.71.09-3.45-.09-5.16,0C921.71,1005.61,917.42,1007.67,916.48,1013.63Z" transform="translate(-282.27 -137.72)"/><path d="M886.93,1005.85c-4.71-1.46-9.38-3-14.11-4.38A105.42,105.42,0,0,0,886.93,1005.85Z" transform="translate(-282.27 -137.72)"/><path d="M929.1,1001.17c0,.14.07.25.1.38.21-.2.43-.38.63-.59-.23,0-.47.09-.7.15Z" transform="translate(-282.27 -137.72)"/><path d="M934.76,1005.91a6.65,6.65,0,0,0,2.1-2.23,8.38,8.38,0,0,1-4.73,1.48A12,12,0,0,0,934.76,1005.91Z" transform="translate(-282.27 -137.72)"/><path d="M965.17,994.67c.91,3,.34,6.23,1.59,9.13,2,4.72,5.92,7.06,10.83,7.65a5.62,5.62,0,0,0,6.38-4c1.59-4.64-1.19-8-3.35-11.73-3-5.11-10.77-3.76-13.56-8.79a27.13,27.13,0,0,0-4.95,3.22C963.75,990.68,964.53,992.62,965.17,994.67Z" transform="translate(-282.27 -137.72)"/><path d="M962.11,990.2a27.13,27.13,0,0,1,4.95-3.22,7.8,7.8,0,0,1-.86-2.6c-3.28,1.27-7.08,1.93-7.52,6.49A4.5,4.5,0,0,1,962.11,990.2Z" transform="translate(-282.27 -137.72)"/><path d="M980.62,995.77c2.16,3.76,4.94,7.09,3.35,11.73a5.62,5.62,0,0,1-6.38,4c-4.91-.59-8.8-2.93-10.83-7.65-1.25-2.9-.68-6.17-1.59-9.13-.64-2-1.42-4-3.06-4.47a13.29,13.29,0,0,0-1.17,1.2c4.33,1.71.84,6.37,1.21,9.32,1.07,8.71,6.91,12.69,14.19,15,5.14,1.61,9.62-1.16,11.25-5.82,2.6-7.44-1.53-12.79-6.59-18.29-3.66-4-9.65-1.93-13.18-5l-.76.43C969.85,992,977.67,990.66,980.62,995.77Z" transform="translate(-282.27 -137.72)"/><path d="M962.11,990.2a4.5,4.5,0,0,0-3.43.67,9.42,9.42,0,0,1,2.26.53A13.29,13.29,0,0,1,962.11,990.2Z" transform="translate(-282.27 -137.72)"/><path d="M967.82,986.55a6.63,6.63,0,0,1-1.62-2.17,7.8,7.8,0,0,0,.86,2.6Z" transform="translate(-282.27 -137.72)"/><path d="M905.83,1018.68c1.59,14.1,6.42,16.56,21,11a3.08,3.08,0,0,1,.23-2.06c-5-3-7.37-8.26-10.12-13.13C913.51,1016.94,910.11,1019.4,905.83,1018.68Z" transform="translate(-282.27 -137.72)"/><path d="M905.83,1018.68a10.43,10.43,0,0,1-2.64-.81c-2.22,9,2.48,14.27,9.74,18.43s10.39-1.53,14.53-5.2a4,4,0,0,1-.65-1.43C912.25,1035.24,907.42,1032.78,905.83,1018.68Z" transform="translate(-282.27 -137.72)"/><path d="M927,1027.61a4.17,4.17,0,0,1,.54-.92c-3.79-3.88-2.83-11.39-9.81-12.83l-.85.62C919.67,1019.35,922,1024.56,927,1027.61Z" transform="translate(-282.27 -137.72)"/><path d="M916.92,1014.48l-.45-.8s0,0,0,0c-4.07-.58-7.39,1.55-10.84,3.2.05.65.12,1.25.19,1.85C910.11,1019.4,913.51,1016.94,916.92,1014.48Z" transform="translate(-282.27 -137.72)"/><path d="M905.64,1016.83a20.92,20.92,0,0,1-2.45,1,10.43,10.43,0,0,0,2.64.81C905.76,1018.08,905.69,1017.48,905.64,1016.83Z" transform="translate(-282.27 -137.72)"/><path d="M916.47,1013.68l.45.8.85-.62a10,10,0,0,0-1.29-.23S916.47,1013.66,916.47,1013.68Z" transform="translate(-282.27 -137.72)"/><path class="cls-1" d="M926.81,1029.67c.24-.08.46-.16.69-.26,0-.5,0-1,0-1.5-.17-.09-.33-.2-.5-.3A3.08,3.08,0,0,0,926.81,1029.67Z" transform="translate(-282.27 -137.72)"/><path class="cls-1" d="M926.81,1029.67a4,4,0,0,0,.65,1.43c0-.56,0-1.12,0-1.69C927.27,1029.51,927.05,1029.59,926.81,1029.67Z" transform="translate(-282.27 -137.72)"/><path class="cls-1" d="M927.54,1027.91c0-.4,0-.81,0-1.22a4.17,4.17,0,0,0-.54.92C927.21,1027.71,927.37,1027.82,927.54,1027.91Z" transform="translate(-282.27 -137.72)"/><path d="M903.09,1027.6c.13,6.89,3.38,13.17,10.69,12.78,8.51-.46,13.15-6.89,14.42-15.28.86-7.54-2.35-12.4-9.59-13.65C912.24,1010.36,903,1020.08,903.09,1027.6Z" transform="translate(-282.27 -137.72)"/><path d="M962.06,1004.71c.16,7.75,3.92,14.82,12.37,14.39,9.83-.51,15.16-7.72,16.62-17.15,1-8.47-2.74-14-11.11-15.36C972.59,985.34,961.89,996.26,962.06,1004.71Z" transform="translate(-282.27 -137.72)"/><path d="M910.55,1006.22l-11.64-.39C902.73,1007.83,906.58,1008.59,910.55,1006.22Z" transform="translate(-282.27 -137.72)"/><path d="M910.55,1006.22c-4,2.37-7.82,1.61-11.64-.39C902.68,1009.17,906.53,1010.1,910.55,1006.22Z" transform="translate(-282.27 -137.72)"/><path d="M1584.29,693.26c9-.31,17.9-.72,26.85-.91,6.73-.14,10-3.25,9.78-10.11a75.73,75.73,0,0,1,.08-11.67c.7-6-1.7-8.4-7.67-8.64-11.66-.45-23.31-1.41-35-2-3-.17-6.19-.42-8,3.24-4.25,8.63-3.59,17.8-.78,26.13C1571.73,695.54,1579.35,691.5,1584.29,693.26Z" transform="translate(-282.27 -137.72)"/><path d="M1682.77,745.05c-7-.85-7.11-4-6.27-9.23,3.6-22.41,6.31-45,4-67.66-1.67-16-6.08-31.12-18.67-42.49-8.28-7.58-12.5-17.5-16.77-27.6-2.13-5.05-4.55-10.69-10.33-13.27h0c-8.46-13.12-22.28-17.6-35.82-23.08-12.74-5.16-89-20.61-94.36-21.32-66.19-8.83-132.33-18.13-199.19-20.17a39.24,39.24,0,0,1-16.74-3.94l-89.1-76.36c-5-.12-6.74-4.15-8.94-7.6a117.16,117.16,0,0,0-63.27-30.45C1116.17,401.22,771,375.71,764,373.82a4,4,0,0,1-2,.18c-3.51.85-7.16,1.33-10,3.83-4.4,4.24-3,9.05-1.55,14,9.78,33.09,20.1,66,28.89,99.4,3.76,14.25,9.83,23.2,23.47,31.13,24.18,14.06,46.25,17.72,71,3.28,6.72-3.92,14.59-7,23.13-7,60.51-.09,121-4.13,181.49-2.92.25,0,.52-1.08,1.52-3.34L965.56,496.59c45.81.33,91.21,5.92,136.74,9.59,6.49.52,12.14,2.13,17.18,6.09,3.2,4.85,8.32,3.33,12.81,3.84,21.45,2.43,42.92-4.47,64.15-.88,32.51,5.51,65.36,5.8,98,8.56,31.53,2.67,63.19,3.36,94.58,8.28,27,4.23,54.21,6.74,81.33,10,7.48.78,49.38,7.29,62.61,10.91h0c33.29,8.17,69.13,9.42,96.11,35-9.26-2.15-259.07-17.95-375-14.36-10.14.32-19.77,3.27-29.21,8-6.4,3.19-9.62,9-14.76,14.12-4.85,4.84-4.49,8.85-5.43,13.79h0l-96.91,7.63h0c-12-1-23.9-.85-35.59,2.44l-4.48,0c-20.13.46-34.82,9.28-37.16,23.19-3,17.68-4.91,35.55-8,53.22-1.64,9.43.41,13.28,10.86,12.94,37-1.21,74.09-1.84,111.15-2.39,21.84-.33,43.68-1.95,65.53-.17.76,10.09,1.47,20.19,2.3,30.28.45,5.44-.57,8.74-7.34,8.9-60.12,1.38-120.24,2.76-180.38.65-7.65-.26-9.15-3.53-8.64-10.17,1.3-16.75,2.09-33.54,3.4-50.29.47-6.14-1.08-9.6-7.23-12.63-33-16.25-67.13-29-103.78-33.45-43.07-5.24-81.41,4.38-110.52,39-21.49,25.56-33.57,55.75-40.66,87.88-2.11,9.56-5.56,12.05-14.85,11-29.89-3.37-232.14-22.68-303.26-30-9.62-1-12.84,1.74-11.94,11.06,1.2,12.41,1.47,24.92,3,37.27.74,5.87-.95,6.91-6.08,6.08-22.75-3.66-45.5-7.31-68.29-10.74-6.73-1-8.86-4.46-8.86-11.08,0-17.19-2.88-34.14-6.79-50.8-3.18-13.52-5.7-27.48-13.77-39.27-6.09-8.88-10.39-8.58-17,0-37,102.31-25.56,160-25.56,160s4,15.58,3,23.76c4.37,22.51,20.07,24.92,39.75,25.26,37.52.66,75,1.3,112.45-.75,10.72-.59,18-4.88,24.11-13.36,9.22-12.77,9.18-27.84,12-42.25.66-3.34-.69-7.31,6.12-7.2,26.35.4,236.25,52.71,267.35,60,7,1.65,9.5,5.64,10.4,12,3.44,24.26,8.33,48.17,16.09,71.51q24.45,73.59,97.75,98a173.81,173.81,0,0,0,18.68,5.6c8,1.53,15.9,3.35,24.28,3,18.32-.65,36.77-1.63,55-1,45,1.47,81.25-17.37,113.8-45.35,22.35-19.21,38-43.73,49.8-70.67,4.06-9.3,8.82-14,20.8-13.15,56.87,4.14,113.83,6.92,170.77,10.08,6.33.35,12.35,1.06,17.51,5.17,28.82,22.92,61.91,34.78,98.35,37.94,36.44-.4,71.93-5.11,104.51-23,19.38-10.66,35-25.29,45.73-44.72,2.85-5.16,6.74-6.32,12.16-7.22,18-3,36.64-.91,54.16-6.85,18.68-6.33,31.26-18.09,32.75-39,.13-1.91.26-4.19,1.31-5.62,12.08-16.41,7.44-35.88,10.18-54,1.48-9.85-4.46-11.3-11.88-11q-31,1.14-62,2.57c-60,2.75-315.29,15.32-357.75,17.08-26.46,1.09-46.26,12.15-56,37.46-5.19,13.44-14.52,17.65-28.05,17.82-59.45.78-118.61-3.67-177.77-8.62-7.36-.62-11-2.52-13.15-11.09-4.92-19.7-14.44-37.47-30.76-50.67l-.81-3.12-.86-3.37c7.63-.6,10.14-2.78,10.35-5.69a20.93,20.93,0,0,0,4.23-10.25c.86-7.53-2.36-12.4-9.6-13.64-2.87-.5-6.3,1.27-9.22,4a10,10,0,0,0-2.86,3.16c-2.08,2.83-3.48,6.08-3.43,9a19.67,19.67,0,0,0,.69,4.92c0,.15,0,.31,0,.46h0c-2.88,3.59-5.44,1-8.2-.31-25.72-11.89-51.06-10.77-76.27,1.85-3.69,1.85-5.95,6.55-11.18,5.75-2.71-6.08,3.23-13.86-1.87-19.42a9.68,9.68,0,0,0-3.65-3.28,4.86,4.86,0,0,0-3.34-1.2c-.33-.08-.64-.19-1-.25-6.37-1.09-15.65,8.63-15.51,16.15.12,6.89,3.37,13.17,10.68,12.78a16.4,16.4,0,0,0,1.92-.29c3.1,3.22,3.9,6.31-2,11.18-6.31,5.21-11,12.78-14,20.76-1.08,2.85-2.6,4.58-4.88,5.4-1.59-2.36-4.22-3.93-7.89-4.56-6.37-1.1-15.64,8.63-15.51,16.15.13,6.88,3.37,13.17,10.69,12.77a15.68,15.68,0,0,0,3.31-.55,12.4,12.4,0,0,0,2.39.3c4.22,0,5.19-3,5.58-6.27a18.59,18.59,0,0,0,1.8-3.66c3.64-3.84,3.19-9.59,5.55-14.1,25.46-48.77,67.26-63.06,117.47-39.77l.42.19c19.3,14.22,31.93,32.64,38.23,56.06,12.61,46.88-6.56,104.53-51.87,124.8a37.94,37.94,0,0,0-4.9,3.18c1.63,2.75,4.52,2.26,7,2.72,8.82-1.63,15.78-6.44,21.82-12.81.44-4.56,4.24-5.22,7.52-6.49,10.19-7.52,16.25-18.11,21.94-29,2.4-4.61,4.06-8.38,10.92-3.09,6.08,4.68,14.59,4.7,21.86-.69,2.36-1.74,4.57-3.79,8.17-4,13-.68,15,2,10.64,14-11.21,31-28.28,57.67-56.43,75.8-47.11,30.35-105.07,23.05-145.81-18.55-43.34-44.27-60.14-97-45.72-157.71,10.32-43.44,32.86-79.26,73.69-100.92,26.35-14,53.75-16.71,82.12-6.31,4.69,1.72,9.63,3.53,14.47-.23,3.46-2.69,7.57-1.35,11.36-1.06,81.5,6.24,163.12,7.82,244.82,6.3,7.68-.14,14.37,2.86,21.19,5.69,28.84,12,56.07,28.33,89.4,26.59,53.78-2.81,107.65-4.2,161.48-6.07q68.48-2.39,136.94-4.47c12.76-.39,22-7,25-18.39,1.07-4,.64-5.9-4.25-5.22-35.62,5-318.84,14.57-328.54,15.23-32.7,2.23-61.91-9.7-91-22-3.46-1.46-6.36-3.47-6.46-8.54-.66-34.31-1.74-68.61-2.69-102.92-.9-6.83-1.49-13.73-2.77-20.49-2.82-14.87,3-25.33,15.76-32.54l.9-.24c14-3.79,348.87,1.53,402.92,8,7.43,10.23,4.45,21.36,4.59,32.89.41,33.8,3.77,67.57,5.7,101.36.29,5.16,1.07,9.47,7.4,13.63-1-20.9-1.91-40.24-2.78-59.58s-1.68-38.67-2.52-58c4.21-.54,5.42,3.68,8.59,4.06.56,4.36,4,6.84,6.51,9.92,1.38,6.47,5,12.08,6.4,18.7,5.72,26.87,3.59,53.58-.68,80.23-1.59,9.95-.27,14.73,11.56,15,19.85.38,31.16,13.58,31.31,34l.12,17.19c3-3.69,4-7.39,4.64-11.15C1722.09,763.86,1711.12,748.51,1682.77,745.05ZM314,868.51c-2.05,4.7-3.31,10.72-9.3,10.51-7.15-.26-8.38-7.37-10.05-12.69-6-19.22-5.41-39.2-5.86-59-.49-21.17,2.63-42.06,7.08-62.64,1.7-7.9,3.9-19.69,13.34-19.36,8.54.3,9.92,12,11.25,19.64,3.94,22.68,6.47,45.56,3.41,65.17C322.69,832.29,321.65,851,314,868.51Zm690.82,57.71c-1.05,1.9-4.2,2.17-5.14.86-4.08-5.7-.39-11,0-18.42C1005.89,915.23,1008.14,920.24,1004.82,926.22Zm205.85-229.46c-12,.09-24-.49-35.81,2.3L1166,699h-.64c-32.08-1.19-64,2-96,3.07-11.27.37-22.55.4-33.82.64-4.89.11-5.93-2.71-5.34-6.81,2.7-18.5,5-37.07,8.28-55.47,1.71-9.62,11.08-10.39,18.16-13.71.47-.23.94-.46,1.39-.71h0l13.78.27c1.78.18,3.55.28,5.32.33a79.37,79.37,0,0,0,10.69-.41,101.53,101.53,0,0,0,12.63-2.13c32.68-1.32,65.38-2.43,98-4.12,7.39-.38,10.32,1,10.1,9.17C1208,651.67,1213.24,674.1,1210.67,696.76Z" transform="translate(-282.27 -137.72)"/><path d="M1605.19,639.63c9.65,1.13,11.66-4,12.18-12.46s-.88-13.1-10.76-13c-8.11,0-16.24-1.73-24.36-2.78-14.76-1.91-15-1.36-16.47,13-1,10,2.15,14.88,12.54,14.5,3.87-.14,8.41-.06,12.29.19,0-.31,0,.31,0,0C1595.67,639.34,1600.17,639,1605.19,639.63Z" transform="translate(-282.27 -137.72)"/><path d="M1610.5,714.26c-10.08.26-20.2-.74-30.28-.43-10.46.33-13.48,7.29-13.13,16.66s6.39,10.14,13.74,9.58c7.73-.59,15.5-.92,23.26-1.11,9.83-.24,15.24-4.62,14.67-15C1620.45,717,1617.94,714.07,1610.5,714.26Z" transform="translate(-282.27 -137.72)"/><path d="M624.84,425.22c1.17-2.3,2.51-5.27.43-7.72s-5.38-1.2-7.64-.51c-12.15,3.71-23.94,8.85-36.27,11.66-12.88,2.94-19.57,11.23-24.54,22.18-6.53,14.41-13.52,28.64-19.56,43.26a897.14,897.14,0,0,0-29.81,85.5c-2.16,6.32.34,7.73,6.26,6.94,14.25-1.91,28.5-4.12,42.82-4.91,9-.5,13.16-4.39,15.18-12.67,5.26-21.48,11.09-42.8,14.64-64.7,2-12.13,4.1-24.94,13.3-34.17C612.31,457.38,617,440.48,624.84,425.22Z" transform="translate(-282.27 -137.72)"/><path d="M604.94,582c17.81,5,35.32,2.07,53.79-2.47-8.38-4.57-16.66-3.65-24.62-3.68-22.05-.06-39.41-7.44-48.45-31.84C580.18,562.28,588.72,577.45,604.94,582Z" transform="translate(-282.27 -137.72)"/><path d="M448,707.92c0,.09,0,.18,0,.27l.17-.13C448.14,708,448.1,708,448,707.92Z" transform="translate(-282.27 -137.72)"/><path d="M750.69,476.05c-5.32-23-10.49-46.06-16-69C731,391.81,721.15,385.82,706,389.55c-10.12,2.5-20,5.93-30.15,8.33-12.84,3-20.84,11.06-25.61,22.9-3,7.53-6.08,15-9.07,22.58-6.35,16-6.33,16,11,18.51,14.11,2,15.59,3.95,14,18.24-.34,3.1-.36,6.29-1.12,9.28-2.21,8.6.76,12.56,9.76,11.95,8.07-.54,8.54,5.1,8.18,10.84s-1.25,11.87-9.17,10.12c-12.24-2.71-15,3.24-14.2,13.72a46.26,46.26,0,0,1-.52,10.51c-1.09,7.07,1.09,11.49,8.77,11.87,11.6.57,13.36,6.84,9.63,16.38-2,0-3.73.56-4,2.93-.38,2.88,1.24,4.09,3.8,4.5,3.53,5.63,8.66,6.94,15.06,6.45,14-1.07,28-2.42,42-2.11,11.32.26,16.84-4.95,18.63-15,4.94-27.61,10.34-55.28.88-83.07C755,483.78,754.34,479.53,750.69,476.05Z" transform="translate(-282.27 -137.72)"/><path d="M910.55,1006.22c-4,3.88-7.87,2.95-11.64-.39-27.68-3.37-48.75-17.6-65-40C835,973,840.21,977.23,844,982.28c4.67,6.18-3.08,12.46.69,18.75,2,3.37,3.36,7.27,7.23,8.68s10.05,3.66,11.33-1.14c2.71-10.19,8.93-5.69,13.35-3.83a59.07,59.07,0,0,0,20.33,4.84c6.14.29,7,3.41,6.25,8.29a20.92,20.92,0,0,0,2.45-1s0-.09,0-.13c-.19-2.79-.62-6.5-3.3-7a123.8,123.8,0,0,1-15.39-3.89,105.42,105.42,0,0,1-14.11-4.38c-1.31-.38-2.63-.75-4-1.09-2.36-.61-4.22,1.43-6.19,2.72-8.52,5.61-15.8,2.51-14.79-7.6a24,24,0,0,0-1.66-11.93c7.1,7.95,16.18,13.79,26.59,17.9,4.73,1.36,9.4,2.92,14.11,4.38q6.09,1.44,12.53,2.35c3.52.18,7,1.36,10.59.31,6.18-2.87,13.76-2,19.15-7,0-.13-.07-.24-.1-.38l0-.06C922.86,1002.52,916.17,1002.43,910.55,1006.22Z" transform="translate(-282.27 -137.72)"/><path d="M1293.46,620.17V620l.18-8.19c0-.31,0-.62,0-.93-5.28-7.94-12.78-6.9-20.48-5.07-.82.06-1.63.13-2.44.21-5.74.61-11.12,2.2-15.75,5.9-.36.29-.73.55-1.08.87-3.6,29.83-4.54,59.83-5.19,89.81-.29,13.54,4.85,25.19,17.12,32.39,17.88,10.5,27,5.59,27.2-14.42,0-3.12-.26-6.23-.25-9.35.11-30.36-2.11-60.75.67-91.09Z" transform="translate(-282.27 -137.72)"/><path d="M1430.72,604.63c-8.93-.68-14.7,1.93-13.89,12,.68,8.5-3.65,19.32,12.44,19.32,35.54,0,71.08,1.1,106.61,2.27,10.27.34,11.52-5,11.14-13.07-.37-7.95,2.61-16.93-10.86-17.24-17.16-.39-33.59-.13-50.74-1.26l-.93,1.56.93-1.56C1467.5,605.47,1448.63,606,1430.72,604.63Z" transform="translate(-282.27 -137.72)"/><path d="M1434.77,745.19c34.71-.9,69.41-2.1,104.12-2.8,6.09-.12,8.06-2.43,8.76-8.07,2.19-17.62,2.36-17.58-14.82-18.33-2.71-.12-5.26.08-8-.17-2.94-.07-6.06-.09-9-.16a42.74,42.74,0,0,1-6.86.45c-25.38.08-50.75.19-76.13,0-9.59-.07-14.37,3.81-14.27,13.75C1418.73,742.37,1421.68,745.53,1434.77,745.19Z" transform="translate(-282.27 -137.72)"/><path d="M1323.27,685.27c.21,4.82,2.63,6.67,7.52,6.68,18.33,0,36.66.4,55,.59,5.27.06,8.72-1.61,9.47-7.77,2.54-21.09-1.27-25.87-22-26.42-4.29-.12-8.58-.17-11.23-.22-6.32,0-11,.14-15.69.1-25.29-.21-26,.57-23.14,25.88C1323.22,684.49,1323.26,684.88,1323.27,685.27Z" transform="translate(-282.27 -137.72)"/><path d="M1334.27,634.5c13.06.24,24.35.3,35.64.68,23.9.8,24.88-.37,22.89-24.43-.45-5.48-2.27-7.63-7.68-7.54-16.34.28-32.7-.08-49,.64-10.06.45-14.56,9.08-14.35,22.75C1321.94,638.25,1330.44,633.57,1334.27,634.5Z" transform="translate(-282.27 -137.72)"/><path d="M1333.17,745.48c18.28.88,36.65.14,55-.12,3.56-.05,6.5-1.38,7.86-5.58,5.2-16.07,1.5-21.72-15.09-22.14-6.24-.16-12.49,0-18.74,0h0c-9.36-.19-18.76.22-28.09-.45-6.5-.47-11.37.39-9.9,8.24C1325.56,732.76,1319.18,744.81,1333.17,745.48Z" transform="translate(-282.27 -137.72)"/><path d="M1438.38,693.61c27.26,1.84,29.18.81,30.19-13.34.5-11.25,5.66-20.42-17.2-21.18-25.75-.85-31.87.57-32.84,11.87C1417,689,1419.89,692.36,1438.38,693.61Z" transform="translate(-282.27 -137.72)"/><path d="M1513,693.44c27.26,1.85,29.17.81,30.18-13.34.5-11.25,5.66-20.41-17.2-21.17-25.74-.86-31.86.56-32.84,11.86C1491.55,688.87,1494.47,692.2,1513,693.44Z" transform="translate(-282.27 -137.72)"/><path d="M893.31,783.31c.12,6.89,3.37,13.17,10.68,12.77,8.52-.46,13.15-6.88,14.43-15.28.86-7.53-2.36-12.39-9.6-13.64C902.45,766.06,893.17,775.79,893.31,783.31Z" transform="translate(-282.27 -137.72)"/><path d="M814.51,952.57c8.51-.46,13.14-6.89,14.42-15.28.86-7.53-2.36-12.4-9.6-13.64-4.14-.71-9.46,3.16-12.68,8a8,8,0,0,0-2.6,6.31,10.53,10.53,0,0,0-.23,1.83C804,946.68,807.19,953,814.51,952.57Z" transform="translate(-282.27 -137.72)"/><path d="M326.86,644.15c6.06-4.11,9.43-9,9.27-16.27-.27-11.78,6.34-15.57,17.09-15.08,3.42.15,6.9-.88,10.35-1.34,32.68-4.41,65.33-9.09,98.07-13.1,23-2.82,29-6.14,32.53-21.65A520.67,520.67,0,0,1,527.37,478c13.11-29.12,29.23-53.52,65.35-60.52,31.57-6.12,61.54-20.13,92.65-29.13,23.6-6.82,46-19,71.63-17.77h0c2-3,5-3.4,8.26-3.28,28.83,1.08,122.91,6.22,141.13,7.58l9.77.69c6.5.33,13,.68,19.5,1.1q10.05.63,20.1,1.44c1.2.1,2.39.24,3.59.36,11.5.74,131.43,14.2,135.51,14.19l38,3c-3.91-1.65-45-9.06-49.1-9.94-51.29-11-104.05-13.66-156.24-17.23-48.74-3.33-97.58-5.14-146.4-7.18-16-.66-32.48.24-47.56,4.78-50.29,15.15-100.16,31.7-150,48.37-12.26,4.1-26.41,5.36-34.95,17.18-29,40.1-46.6,85.28-57.87,133-4.91,20.77-4.53,22-25.74,25.36-3.83.61-7.52,2.15-11.35,2.69Q399,600.37,344.25,607.87c-8.15,1.13-12.27,5.39-12.63,14-.32,7.52-2.61,14.35-9.8,18.78-14.7,9-17.61,23.4-17.48,40.75C310.24,666.69,314.33,652.64,326.86,644.15Z" transform="translate(-282.27 -137.72)"/><path d="M543,1279.15q0,4.14.92,5.76t4.61,2.76a4.36,4.36,0,0,1,1.37.22c.46.16,1,.31,1.61.46a8,8,0,0,1,3.91,2.19,5.39,5.39,0,0,1,1.38,3.79,5.23,5.23,0,0,1-2.3,4.72q-2.29,1.5-7.58,1.5H489.85c-2.9,0-5.06-.5-6.44-1.5a5.19,5.19,0,0,1-2.06-4.48,5.71,5.71,0,0,1,1.14-3.57,6.64,6.64,0,0,1,3.46-2.19,11.19,11.19,0,0,0,1.72-.57c.54-.23.95-.42,1.26-.57a6.06,6.06,0,0,0,3.22-2.65,11.8,11.8,0,0,0,.69-4.72V1167.59a13.47,13.47,0,0,0-.56-4.6c-.39-.92-1.43-1.76-3.11-2.53-.46-.15-1-.35-1.5-.58a11.19,11.19,0,0,0-1.72-.57,8.48,8.48,0,0,1-3.46-2.3,5.6,5.6,0,0,1-1.14-3.68,5.08,5.08,0,0,1,2.18-4.49,11.16,11.16,0,0,1,6.32-1.5l3-.22H543Zm8.75-119.61v-12.42h2.75a197.54,197.54,0,0,1,23.59,1.38,43.32,43.32,0,0,1,14.36,4.6,7.26,7.26,0,0,1,1.74.69c.53.31,1,.61,1.48.92a33.69,33.69,0,0,1,13.46,13.23,37.68,37.68,0,0,1,4.49,18.51,40.85,40.85,0,0,1-3.22,16.1,29.6,29.6,0,0,1-9.2,12.2l-.46.46a34.09,34.09,0,0,1-4.83,3.22,99.38,99.38,0,0,1-11.62,4.94q-3.09,1-7.25,2.19a14.85,14.85,0,0,0,1.84.34,14.48,14.48,0,0,0,1.85.12,81.54,81.54,0,0,1,10.58,2.41,56.07,56.07,0,0,1,7.58,3.1,6.2,6.2,0,0,1,.93.58,6.66,6.66,0,0,0,.92.58,25.75,25.75,0,0,1,9,8.74,21.38,21.38,0,0,1,3.22,11.27v23a5.27,5.27,0,0,0,.58,2.77,1.87,1.87,0,0,0,1.72.91,1.57,1.57,0,0,0,.69-.11,1,1,0,0,1,.46-.12,3,3,0,0,0,.92-.8c.3-.38.69-.88,1.15-1.49l1.39-1.39a5.8,5.8,0,0,1,1.61-1.15,6.08,6.08,0,0,1,1.37-.69,4.44,4.44,0,0,1,1.38-.23,1.87,1.87,0,0,1,.58.12,2.46,2.46,0,0,0,.8.11,10.31,10.31,0,0,1,2.65,2,5,5,0,0,1,1.49,2.64,1.86,1.86,0,0,1,.23.69v.46a11.81,11.81,0,0,1-1,4.37,24.33,24.33,0,0,1-2.88,5.06,50.48,50.48,0,0,1-4.59,5.3,40.9,40.9,0,0,1-5.53,4.6,34.07,34.07,0,0,1-8.85,3.56,45.3,45.3,0,0,1-11.16,1.27q-15,0-23.35-8.4t-8.4-23.58v-19.09q0-9.42-2.87-14c-1.91-3.07-5.1-4.83-9.54-5.29v-12.43c4.59-.46,7.81-1.83,9.66-4.14s2.75-6,2.75-11v-29.91q0-6.9-2.53-10.23t-9.88-5.64Z" transform="translate(-282.27 -137.72)"/><path d="M703.77,1300.55H650.64q-4.36,0-6.44-1.5a5.17,5.17,0,0,1-2.07-4.48,5.66,5.66,0,0,1,1.15-3.57,6.6,6.6,0,0,1,3.45-2.19,10.84,10.84,0,0,0,1.72-.57q.82-.35,1.5-.57c1.69-.77,2.72-1.61,3.11-2.54a14.12,14.12,0,0,0,.57-4.83V1167.59a13.17,13.17,0,0,0-.57-4.6c-.39-.92-1.42-1.76-3.11-2.53-.45-.15-1-.35-1.5-.58a10.84,10.84,0,0,0-1.72-.57,6.54,6.54,0,0,1-3.45-2.19,5.63,5.63,0,0,1-1.15-3.56,5.33,5.33,0,0,1,2.18-4.72,11.22,11.22,0,0,1,6.33-1.5l3-.22h50.14Zm55-153.43v40c0,2.46-.43,4.22-1.27,5.29s-2.26,1.61-4.26,1.61a6,6,0,0,1-3.44-.8,6.68,6.68,0,0,1-2.08-3.11,1.36,1.36,0,0,1-.34-.57,1.81,1.81,0,0,1-.11-.58c-2.93-8.89-7.13-15.6-12.66-20.13s-12.65-7.24-21.39-8.16v-13.57Zm-45.55,68.77q6.43-3,9.55-6.55a22,22,0,0,0,4.49-9.78,17.33,17.33,0,0,1,2.41-6c.84-1.07,2.26-1.61,4.25-1.61,2.15,0,3.61.66,4.37,2s1.15,3.79,1.15,7.47v42.33c0,3.68-.38,6.18-1.15,7.48s-2.22,2-4.37,2a5,5,0,0,1-3.91-1.49,13.91,13.91,0,0,1-2.53-5.18q-1.83-7.82-5.29-12a16.51,16.51,0,0,0-9-5.52Zm0,72.46q13.57-1.61,21.85-8.74t13.12-20.47a10,10,0,0,1,.56-1.38c.24-.46.43-.84.58-1.15a9.61,9.61,0,0,1,2.19-2.87,4.54,4.54,0,0,1,2.87-.81c2.3,0,3.88.57,4.72,1.72s1.27,3.34,1.27,6.56v39.34H713.21Z" transform="translate(-282.27 -137.72)"/><path d="M820.17,1199.11l-20,72.45c-.15.62-.26,1.19-.34,1.73a10,10,0,0,0-.11,1.49,4.58,4.58,0,0,0-.23,1.5v1.49a10.51,10.51,0,0,0,1.72,5.87,10.82,10.82,0,0,0,4.95,4l3.67,1.61a9.36,9.36,0,0,1,2.88,2.64,5.73,5.73,0,0,1,1,3.33,4.36,4.36,0,0,1-2.17,3.91,11.45,11.45,0,0,1-6.1,1.39H776.92a11.85,11.85,0,0,1-6.44-1.61,5,5,0,0,1-2.53-4.37,4.79,4.79,0,0,1,1.16-3.22,10,10,0,0,1,3.91-2.54q7.13-3.21,10.46-7.36t5.64-12.88l25.3-92.7Zm47.39-52,31.05,132c.15.62.27,1.12.35,1.5a8.58,8.58,0,0,0,.34,1.26,12.6,12.6,0,0,0,2.19,4.72,8.59,8.59,0,0,0,3.79,2.41,1.37,1.37,0,0,0,.57.35,1.81,1.81,0,0,0,.58.11,7.78,7.78,0,0,1,3.11,2.42,6.17,6.17,0,0,1,.8,3.33,4.36,4.36,0,0,1-2.19,3.91c-1.45.92-3.64,1.39-6.55,1.39H845.47a8.81,8.81,0,0,1-5.29-1.5,4.94,4.94,0,0,1-2.07-4.26,6.79,6.79,0,0,1,.34-2.29,4.45,4.45,0,0,1,1-1.61c.45-.31,1-.65,1.61-1s1.29-.81,2.06-1.26a1.79,1.79,0,0,1,.47-.35.91.91,0,0,1,.45-.11,7.51,7.51,0,0,0,2.3-2.42,6.85,6.85,0,0,0,.69-3.34l-.22-3.22-3.69-16.33H811.89l3-13.8h25.3l-20.7-90.86,2.76-11Z" transform="translate(-282.27 -137.72)"/><path d="M931,1300.55h-3q-4.37,0-6.44-1.5a5.17,5.17,0,0,1-2.07-4.48,5.66,5.66,0,0,1,1.15-3.57,6.6,6.6,0,0,1,3.45-2.19,10.84,10.84,0,0,0,1.72-.57q.82-.35,1.5-.57c1.69-.77,2.72-1.61,3.11-2.54a14.12,14.12,0,0,0,.57-4.83V1167.59a13.17,13.17,0,0,0-.57-4.6c-.39-.92-1.42-1.76-3.11-2.53-.45-.15-1-.35-1.5-.58a10.84,10.84,0,0,0-1.72-.57,6.58,6.58,0,0,1-3.45-2.27,6,6,0,0,1-1.15-3.71,5.33,5.33,0,0,1,2.18-4.72,11.3,11.3,0,0,1,6.33-1.49l3-.23H985.1q5.28.45,7.59,1.95a5.22,5.22,0,0,1,2.29,4.72,5.38,5.38,0,0,1-1.37,3.8,8,8,0,0,1-3.91,2.19c-.61.15-1.16.31-1.61.46a4.44,4.44,0,0,1-1.38.23c-2.45.77-4,1.69-4.61,2.76s-.92,2.93-.92,5.54v132Zm58.43-12.66a35.71,35.71,0,0,0,6.9-1.26,33.19,33.19,0,0,0,4.83-2l.35-.34a.44.44,0,0,1,.34-.12,32.8,32.8,0,0,0,10.35-10.46,62.09,62.09,0,0,0,7.36-16.22c.46-1.22.85-2.34,1.16-3.33a16.08,16.08,0,0,1,.91-2.42,7.44,7.44,0,0,1,2.42-3.33,6.08,6.08,0,0,1,3.33-.81c2,0,3.37.57,4.14,1.72s1.16,3,1.16,5.64v45.55H989.47Z" transform="translate(-282.27 -137.72)"/><path d="M1167.51,1300.55h-53.14q-4.36,0-6.44-1.5a5.19,5.19,0,0,1-2.06-4.48A5.71,5.71,0,0,1,1107,1291a6.64,6.64,0,0,1,3.46-2.19,11.19,11.19,0,0,0,1.72-.57q.81-.35,1.5-.57c1.68-.77,2.72-1.61,3.1-2.54a14.12,14.12,0,0,0,.57-4.83V1167.59a13.17,13.17,0,0,0-.57-4.6c-.38-.92-1.42-1.76-3.1-2.53-.46-.15-1-.35-1.5-.58a11.19,11.19,0,0,0-1.72-.57,6.57,6.57,0,0,1-3.46-2.19,5.68,5.68,0,0,1-1.14-3.56,5.32,5.32,0,0,1,2.17-4.72,11.22,11.22,0,0,1,6.33-1.5l3-.22h50.15Zm9.2-153.43h12.43q24.6.23,38.18,10t13.57,27.26a35.43,35.43,0,0,1-4,16.68,29.65,29.65,0,0,1-11.38,12.08,13.22,13.22,0,0,1-1.38.8,12.38,12.38,0,0,0-1.38.81c-1.54.77-3.15,1.49-4.84,2.18s-3.53,1.35-5.51,2a47.61,47.61,0,0,1-4.6,1.26l-5.52,1.26c2.3.46,4.33.89,6.1,1.27a44.71,44.71,0,0,1,4.7,1.27c1.39.31,2.69.65,3.91,1s2.38.81,3.46,1.27c.61.3,1.18.57,1.73.8s1.11.5,1.72.81A33,33,0,0,1,1238,1241a38.25,38.25,0,0,1,4.94,19.55,40,40,0,0,1-4.26,18.75,35.05,35.05,0,0,1-12.53,13.45,12.38,12.38,0,0,1-1.38.81,15.4,15.4,0,0,0-1.39.8,49.77,49.77,0,0,1-14.25,4.83,113,113,0,0,1-19.56,1.39h-12.88v-11.74q8-.22,11.62-4.37t3.56-12.88V1245.8c0-5.83-1.19-10.23-3.56-13.23s-6.26-4.79-11.62-5.4v-12q8.74-.23,12-4.51t3.22-14.44v-19.63q0-7.62-3.91-12t-11.27-5.08Z" transform="translate(-282.27 -137.72)"/><path d="M1271.47,1300.55h-3c-2.91,0-5.07-.5-6.44-1.5a5.17,5.17,0,0,1-2.07-4.48,5.71,5.71,0,0,1,1.14-3.57,6.64,6.64,0,0,1,3.46-2.19,10.84,10.84,0,0,0,1.72-.57q.81-.35,1.5-.57c1.68-.77,2.72-1.61,3.11-2.54a14.45,14.45,0,0,0,.56-4.83V1167.59a13.47,13.47,0,0,0-.56-4.6c-.39-.92-1.43-1.76-3.11-2.53-.46-.15-1-.35-1.5-.58a10.84,10.84,0,0,0-1.72-.57,6.61,6.61,0,0,1-3.46-2.27,6.1,6.1,0,0,1-1.14-3.71,5.31,5.31,0,0,1,2.18-4.72,11.26,11.26,0,0,1,6.33-1.49l3-.23h53.15a14.6,14.6,0,0,1,6.44,1.84q2.06,1.38,2.06,4.6A6.1,6.1,0,0,1,1332,1157a6.65,6.65,0,0,1-3.46,2.27,11.19,11.19,0,0,0-1.72.57c-.54.23-1,.43-1.5.58-1.68.77-2.72,1.61-3.1,2.53a14.06,14.06,0,0,0-.58,4.83v112.26a15,15,0,0,0,.58,5.05c.38.93,1.42,1.77,3.1,2.54q.69.22,1.5.57a11.19,11.19,0,0,0,1.72.57A6.68,6.68,0,0,1,1332,1291a5.71,5.71,0,0,1,1.14,3.57,5,5,0,0,1-2.19,4.48,11.1,11.1,0,0,1-6.31,1.5h-53.15Z" transform="translate(-282.27 -137.72)"/><path d="M1410.18,1144.36v12.42a11.1,11.1,0,0,0-7.47,5.17q-2.42,4-2.42,10.67v104.26c0,4.28.58,7.43,1.73,9.41a12,12,0,0,0,6.1,4.82v12.43H1407a28.16,28.16,0,0,1-6.09-.81,67.33,67.33,0,0,1-7.48-2.18,20.81,20.81,0,0,1-4.37-1.39c-1.38-.61-2.75-1.3-4.14-2.06a65.29,65.29,0,0,1-28.06-27.91q-9.9-18.48-9.9-43.06,0-26,9.79-45.24t27.71-29.17a73.23,73.23,0,0,1,9.43-4.38,47.08,47.08,0,0,1,8.75-2.29c1.22-.15,2.49-.27,3.79-.35s2.56-.11,3.79-.11Zm7.13,146.53c3.53-.77,6-2.23,7.36-4.37s2.08-5.3,2.08-9.44V1244a11.29,11.29,0,0,0-.92-5.29c-.61-1.07-2.16-2-4.6-2.76a4.55,4.55,0,0,1-1.39-.23c-.45-.15-1-.31-1.61-.46a6.56,6.56,0,0,1-3.91-2.07,5.8,5.8,0,0,1-1.37-3.91,5.14,5.14,0,0,1,2.41-4.72c1.61-1,4.11-1.49,7.48-1.49h45.08c3.52.15,6,.69,7.37,1.6s2.06,2.6,2.06,5a6.86,6.86,0,0,1-.45,2.53,9.36,9.36,0,0,1-1.39,2.29,3.65,3.65,0,0,0-.91.69,7.83,7.83,0,0,1-1.16.92,2.56,2.56,0,0,0-.69.46l-.46.45a3.82,3.82,0,0,0-2,2.41,22.28,22.28,0,0,0-.34,4.47v37.84a21.23,21.23,0,0,1-2.64,2.64c-1,.84-2,1.65-3.11,2.41-1.69,1.22-3.49,2.45-5.4,3.67s-3.8,2.37-5.64,3.43c-1.23.61-2.41,1.23-3.56,1.84s-2.27,1.15-3.34,1.61a67,67,0,0,1-14,4.48,88.8,88.8,0,0,1-15,1.73Zm2.08-134.34v-12.19q9.19,1.14,16.44,2.53a70.41,70.41,0,0,1,13.46,3.91l5.29,1.15a4.11,4.11,0,0,0,1.26.23,2.38,2.38,0,0,0,1.05-.23,10.24,10.24,0,0,0,1.61-1.5c.61-.68,1.52-1.8,2.75-3.33a1.67,1.67,0,0,1,.58-.69,3.55,3.55,0,0,0,.57-.46,7.65,7.65,0,0,1,1.84-1,5.88,5.88,0,0,1,2.07-.34c2.15,0,3.65.53,4.49,1.61s1.27,3,1.27,5.75v43.51q0,4.35-1.5,6.53a5.32,5.32,0,0,1-4.72,2.17,6.5,6.5,0,0,1-4.37-1.37c-1.07-.91-2-2.67-2.76-5.27a1.67,1.67,0,0,1-.22-.79,2,2,0,0,0-.24-.81,48.3,48.3,0,0,0-1.84-5.72,52.73,52.73,0,0,0-2.76-6,59.21,59.21,0,0,0-3.23-6.41c-1.22-2.14-2.45-4.12-3.67-5.95-.77-1.22-1.53-2.33-2.3-3.32a26.87,26.87,0,0,0-2.3-2.63,27.93,27.93,0,0,0-9.66-6.64,36.94,36.94,0,0,0-13.11-2.52Z" transform="translate(-282.27 -137.72)"/><path d="M582.31,1416.79a6.32,6.32,0,0,0,.47,2.93,4,4,0,0,0,2.35,1.41,2.19,2.19,0,0,1,.7.12,8.45,8.45,0,0,0,.82.23,4.24,4.24,0,0,1,2,1.11,2.84,2.84,0,0,1,.71,1.94,2.67,2.67,0,0,1-1.18,2.41,7.42,7.42,0,0,1-3.88.76H555.2a5.65,5.65,0,0,1-3.29-.76,2.62,2.62,0,0,1-1-2.29,2.86,2.86,0,0,1,.59-1.82,3.32,3.32,0,0,1,1.75-1.11,5.68,5.68,0,0,0,.88-.3c.28-.11.49-.21.65-.29a3.19,3.19,0,0,0,1.65-1.35,6.22,6.22,0,0,0,.34-2.4v-57.51a6.83,6.83,0,0,0-.29-2.35,2.91,2.91,0,0,0-1.58-1.29c-.24-.08-.49-.18-.77-.29a5.68,5.68,0,0,0-.88-.3,4.33,4.33,0,0,1-1.75-1.17,2.81,2.81,0,0,1-.59-1.88,2.59,2.59,0,0,1,1.11-2.29,5.69,5.69,0,0,1,3.23-.76l1.52-.12h25.59Zm4.46-61v-6.34h1.41a104.45,104.45,0,0,1,12,.7,22.58,22.58,0,0,1,7.34,2.35,3.86,3.86,0,0,1,.87.35c.28.16.54.32.77.48a17.19,17.19,0,0,1,6.86,6.74,19.38,19.38,0,0,1,2.29,9.45,20.91,20.91,0,0,1-1.64,8.22,15.16,15.16,0,0,1-4.7,6.22l-.24.23a14.83,14.83,0,0,1-2.46,1.64,50.81,50.81,0,0,1-5.92,2.53c-1.06.35-2.3.72-3.7,1.11a7.78,7.78,0,0,0,.94.18,7.42,7.42,0,0,0,.94.06,41.07,41.07,0,0,1,5.4,1.23,28.29,28.29,0,0,1,3.87,1.58,4.1,4.1,0,0,1,.47.3,3.89,3.89,0,0,0,.46.29,13.18,13.18,0,0,1,4.59,4.46,10.92,10.92,0,0,1,1.63,5.75V1415a2.66,2.66,0,0,0,.3,1.41,1,1,0,0,0,.88.46.86.86,0,0,0,.36-.05.46.46,0,0,1,.23-.06,1.54,1.54,0,0,0,.46-.41c.16-.2.36-.45.59-.76l.71-.71a3.18,3.18,0,0,1,.83-.59,3.05,3.05,0,0,1,.7-.35,2.07,2.07,0,0,1,.69-.11.93.93,0,0,1,.3.05,1.33,1.33,0,0,0,.42.06,5.31,5.31,0,0,1,1.34,1,2.54,2.54,0,0,1,.77,1.35,1.1,1.1,0,0,1,.12.35v.23a6,6,0,0,1-.54,2.24,12.5,12.5,0,0,1-1.46,2.58,25.7,25.7,0,0,1-2.34,2.7,21.1,21.1,0,0,1-2.82,2.34,17.75,17.75,0,0,1-4.52,1.83,23.6,23.6,0,0,1-5.7.64q-7.63,0-11.9-4.29c-2.87-2.85-4.29-6.86-4.29-12v-9.75q0-4.82-1.47-7.15a6.1,6.1,0,0,0-4.87-2.71V1387c2.34-.23,4-.94,4.93-2.12s1.41-3,1.41-5.63V1364a8.66,8.66,0,0,0-1.29-5.23c-.86-1.13-2.55-2.09-5.05-2.87Z" transform="translate(-282.27 -137.72)"/><path d="M725.25,1427.7H698.14a5.61,5.61,0,0,1-3.28-.76,2.63,2.63,0,0,1-1.06-2.29,2.86,2.86,0,0,1,.59-1.82,3.32,3.32,0,0,1,1.75-1.11,5.68,5.68,0,0,0,.88-.3c.28-.11.53-.21.77-.29a2.93,2.93,0,0,0,1.59-1.29,7.64,7.64,0,0,0,.28-2.46v-57.51a7.15,7.15,0,0,0-.28-2.35,2.93,2.93,0,0,0-1.59-1.29c-.24-.08-.49-.18-.77-.29a5.68,5.68,0,0,0-.88-.3,3.39,3.39,0,0,1-1.75-1.11,2.86,2.86,0,0,1-.59-1.82,2.72,2.72,0,0,1,1.11-2.41,5.71,5.71,0,0,1,3.23-.76l1.52-.12h25.59Zm28-78.28v20.43a4.41,4.41,0,0,1-.65,2.69,2.57,2.57,0,0,1-2.16.83,3,3,0,0,1-1.77-.42,3.43,3.43,0,0,1-1.05-1.58.79.79,0,0,1-.18-.29,1.43,1.43,0,0,1-.06-.3q-2.23-6.79-6.45-10.27a20.13,20.13,0,0,0-10.91-4.16v-6.93Zm-23.23,35.09a14.5,14.5,0,0,0,4.86-3.34,11.18,11.18,0,0,0,2.29-5,9.54,9.54,0,0,1,1.23-3,2.6,2.6,0,0,1,2.18-.83,2.38,2.38,0,0,1,2.23,1,8.43,8.43,0,0,1,.59,3.82v21.6a8.41,8.41,0,0,1-.59,3.81,2.36,2.36,0,0,1-2.23,1,2.57,2.57,0,0,1-2-.76,7,7,0,0,1-1.29-2.64,14.61,14.61,0,0,0-2.7-6.1,8.49,8.49,0,0,0-4.57-2.82Zm0,37a20.32,20.32,0,0,0,11.14-4.46,24.42,24.42,0,0,0,6.69-10.44,5.38,5.38,0,0,1,.3-.71l.29-.59a4.81,4.81,0,0,1,1.12-1.46,2.31,2.31,0,0,1,1.46-.41,2.78,2.78,0,0,1,2.4.88,5.94,5.94,0,0,1,.65,3.34v20.07h-24Z" transform="translate(-282.27 -137.72)"/><path d="M838,1379.7v30.75a14.55,14.55,0,0,0,1.34,6.69,10.47,10.47,0,0,0,4.29,4.23l1.64.81a3.89,3.89,0,0,1,1.18,1.24,3.07,3.07,0,0,1,.36,1.47,2.32,2.32,0,0,1-1.12,2.17,8.15,8.15,0,0,1-3.81.64H828.77a8.36,8.36,0,0,1-3.88-.7,2.35,2.35,0,0,1-1.28-2.23,2.5,2.5,0,0,1,.11-.82,1.45,1.45,0,0,1,.35-.59,8,8,0,0,1,.95-.77c.38-.27.9-.6,1.52-1a10.33,10.33,0,0,0,4.16-4.34,14.87,14.87,0,0,0,1.36-6.69v-41.08Zm48.47,22.65v25.35H870.9l-38.84-67c-.48-.7-.88-1.31-1.24-1.82a8.11,8.11,0,0,0-1-1.23,3.87,3.87,0,0,0-.94-.71c-.31-.15-.67-.31-1-.46l-2.11-.94a2,2,0,0,1-1.36-.89,3,3,0,0,1-.52-1.69,3.18,3.18,0,0,1,.64-1.94,2.85,2.85,0,0,1,1.47-1.12,6.06,6.06,0,0,1,1.76-.29c.78,0,1.84-.06,3.17-.06l25.12-.12Zm-6-19.36v-15.85a15.25,15.25,0,0,0-1.41-7.27,10.78,10.78,0,0,0-4.93-4.34.68.68,0,0,0-.28-.18.64.64,0,0,1-.3-.18,3,3,0,0,1-1.17-1.05,3.26,3.26,0,0,1-.36-1.65,2.56,2.56,0,0,1,1-2.23,5.82,5.82,0,0,1,3.22-.7l14.33-.12a7.07,7.07,0,0,1,3.57.88,2.71,2.71,0,0,1,1.13,2.41,3.62,3.62,0,0,1-.13,1,2.77,2.77,0,0,1-.46.88,4.9,4.9,0,0,1-1,.7c-.44.24-1,.51-1.59.82a10,10,0,0,0-4.22,4.22,15,15,0,0,0-1.41,6.93v25.94Z" transform="translate(-282.27 -137.72)"/><path d="M975.94,1349.42v7a13,13,0,0,0-4.75,5.1,28.7,28.7,0,0,0-2.76,8.28l-.58,3.4a4.66,4.66,0,0,1-1.18,2.81,3.41,3.41,0,0,1-4.81-.11,3.91,3.91,0,0,1-.94-2.7v-23.83Zm30.28,67.37a6.14,6.14,0,0,0,.53,3,4.44,4.44,0,0,0,2.53,1.41,4.72,4.72,0,0,0,.64.17,4.85,4.85,0,0,1,.64.18,3.84,3.84,0,0,1,2.06,1,2.66,2.66,0,0,1,.76,1.94,2.63,2.63,0,0,1-1.23,2.41,7.71,7.71,0,0,1-3.93.76H978.64a7.4,7.4,0,0,1-3.81-.76,2.63,2.63,0,0,1-1.23-2.41,2.79,2.79,0,0,1,.7-1.94,3.55,3.55,0,0,1,2-1c.31-.08.58-.14.82-.18a2.17,2.17,0,0,0,.59-.17,4.09,4.09,0,0,0,2.46-1.41,6.51,6.51,0,0,0,.47-2.94v-67.48h25.58Zm19.72-43.78a4.06,4.06,0,0,1-.94,2.82,3.15,3.15,0,0,1-2.47,1.06,3.1,3.1,0,0,1-2.34-1,5.42,5.42,0,0,1-1.29-2.64l-.59-3.64a26.44,26.44,0,0,0-2.64-8.16,12.17,12.17,0,0,0-4.75-5v-7h15Z" transform="translate(-282.27 -137.72)"/><path d="M1115.83,1376l-10.21,37a8.29,8.29,0,0,0-.17.87,4.26,4.26,0,0,0-.06.77,2.09,2.09,0,0,0-.12.76v.76a5.3,5.3,0,0,0,.88,3,5.48,5.48,0,0,0,2.53,2.06l1.87.82a4.94,4.94,0,0,1,1.47,1.35,3,3,0,0,1,.52,1.7,2.22,2.22,0,0,1-1.11,2,5.8,5.8,0,0,1-3.11.7h-14.55a6,6,0,0,1-3.29-.82,2.57,2.57,0,0,1-.7-3.87,5.07,5.07,0,0,1,2-1.29,14.36,14.36,0,0,0,5.33-3.76,17.81,17.81,0,0,0,2.87-6.57l12.92-47.3Zm24.18-26.53,15.84,67.37c.07.31.14.56.17.76s.1.41.18.65a6.47,6.47,0,0,0,1.12,2.4,4.39,4.39,0,0,0,1.94,1.23.68.68,0,0,0,.28.18,1.11,1.11,0,0,0,.3.06,3.87,3.87,0,0,1,1.58,1.23,3.08,3.08,0,0,1,.41,1.7,2.22,2.22,0,0,1-1.11,2,6.32,6.32,0,0,1-3.34.7h-28.64a4.47,4.47,0,0,1-2.7-.76,2.5,2.5,0,0,1-1-2.17,3.15,3.15,0,0,1,.18-1.18,2.29,2.29,0,0,1,.52-.82l.82-.53,1.06-.64a.76.76,0,0,1,.23-.18.48.48,0,0,1,.23-.05,3.86,3.86,0,0,0,1.18-1.23,3.66,3.66,0,0,0,.35-1.71l-.12-1.64-1.87-8.34h-16l1.52-7H1126l-10.56-46.36,1.4-5.63Z" transform="translate(-282.27 -137.72)"/><path d="M1233.31,1427.7h-1.52a5.65,5.65,0,0,1-3.29-.76,2.62,2.62,0,0,1-1-2.29,2.85,2.85,0,0,1,.58-1.82,3.31,3.31,0,0,1,1.76-1.11,5.68,5.68,0,0,0,.88-.3l.76-.29a2.9,2.9,0,0,0,1.59-1.29,7.3,7.3,0,0,0,.29-2.46v-57.51a6.83,6.83,0,0,0-.29-2.35,2.9,2.9,0,0,0-1.59-1.29l-.76-.29a5.68,5.68,0,0,0-.88-.3,3.32,3.32,0,0,1-1.76-1.16,3,3,0,0,1-.58-1.89,2.69,2.69,0,0,1,1.11-2.4,5.69,5.69,0,0,1,3.23-.77l1.52-.12h27.58a8.92,8.92,0,0,1,3.88,1,2.69,2.69,0,0,1,1.17,2.41,2.76,2.76,0,0,1-.71,1.94,4.08,4.08,0,0,1-2,1.12c-.31.07-.57.15-.82.23a2.1,2.1,0,0,1-.7.12,4,4,0,0,0-2.34,1.41,6,6,0,0,0-.48,2.82v67.35Zm29.81-6.45a18.13,18.13,0,0,0,3.52-.65,16.15,16.15,0,0,0,2.47-1l.18-.17a.22.22,0,0,1,.17-.06,16.72,16.72,0,0,0,5.28-5.34,31.24,31.24,0,0,0,3.75-8.27c.24-.63.43-1.2.59-1.7a6.71,6.71,0,0,1,.48-1.24,3.84,3.84,0,0,1,1.23-1.7,3.12,3.12,0,0,1,1.7-.41,2.35,2.35,0,0,1,2.11.88,5.36,5.36,0,0,1,.59,2.88v23.23h-22.07Z" transform="translate(-282.27 -137.72)"/><path d="M1377.32,1347.9v6.57a12.44,12.44,0,0,0-5.58,3,7,7,0,0,0-1.93,5,8.37,8.37,0,0,0,1.35,4.75,12.78,12.78,0,0,0,4.28,3.81l2.46,1.24c1,.51,2.62,1.23,4.82,2.17l4.93,2.11c1.48.7,2.78,1.33,3.87,1.88s2.07,1,2.94,1.53a13.9,13.9,0,0,1,2.11,1.28c.62.48,1.21.94,1.75,1.41.25.24.48.45.71.65a8.27,8.27,0,0,1,.7.64,25,25,0,0,1,6.11,8.22,24.17,24.17,0,0,1,2,10,25,25,0,0,1-8,19q-8,7.57-20.84,8v-6.57c3.21-.71,5.56-1.76,7-3.17a7.42,7.42,0,0,0,2.22-5.63,8,8,0,0,0-3.75-7.17,27.8,27.8,0,0,0-3.52-2.17q-2.12-1.11-5.17-2.4c-3.67-1.57-6.65-2.94-8.91-4.11s-4.19-2.27-5.75-3.29a26.41,26.41,0,0,1-8-9,24.73,24.73,0,0,1-2.7-11.62q0-11.38,7.22-18.43t19.66-7.62Zm-3,74.76v6.57a18.65,18.65,0,0,1-2.58-.18,17.9,17.9,0,0,1-2.58-.53c-.87-.23-1.72-.48-2.59-.76a14.67,14.67,0,0,1-2.57-1.11c-1.18-.55-2-.94-2.59-1.18a8,8,0,0,0-1.41-.47h-.7a4.25,4.25,0,0,0-.71.06,2.09,2.09,0,0,0-.58.18,3.42,3.42,0,0,0-.94.7,16.11,16.11,0,0,0-1.18,1.41l-.23.24-.24.23a5.8,5.8,0,0,1-.82.53,2.19,2.19,0,0,1-.94.17,2.61,2.61,0,0,1-2.34-1.29,6.72,6.72,0,0,1-.83-3.64V1402.7a3.93,3.93,0,0,1,1-2.64,2.93,2.93,0,0,1,2.34-1.11,2.6,2.6,0,0,1,2,.76,6.28,6.28,0,0,1,1.17,2.64,39.79,39.79,0,0,0,3.4,8.57,31.42,31.42,0,0,0,5.4,7.16c.16.16.3.29.41.41l.41.41a15.28,15.28,0,0,0,3.52,2.47,17.09,17.09,0,0,0,4.23,1.4Zm7.74-68.19v-6.34c.79.16,1.51.27,2.18.35a20.59,20.59,0,0,1,2,.36,29,29,0,0,1,3.63,1.05c1.34.47,3,1.13,5.06,2l1.87.36a1.39,1.39,0,0,0,1-.12,1.93,1.93,0,0,0,.65-.58l1.28-1.76a3.55,3.55,0,0,1,1-.89,2.61,2.61,0,0,1,1.24-.29,2.44,2.44,0,0,1,2.23,1.11,6.78,6.78,0,0,1,.7,3.47V1372a4.28,4.28,0,0,1-.94,2.87,3.06,3.06,0,0,1-2.46,1.12,2.79,2.79,0,0,1-2.23-.94,7.08,7.08,0,0,1-1.29-3.17,22.53,22.53,0,0,0-5.7-11.15,20.4,20.4,0,0,0-10.27-6.1Z" transform="translate(-282.27 -137.72)"/><path d="M402.19,629c15.22,4.3,28.1,16.93,33.79,32.16a64.69,64.69,0,0,1,4.17,23.67,68.18,68.18,0,0,1-3.85,23.34c.74-15.61-.25-31-5.63-45A69.47,69.47,0,0,0,419.5,644,78.52,78.52,0,0,0,402.19,629Z" transform="translate(-282.27 -137.72)"/></svg>